<?xml version="1.0" encoding="UTF-8" standalone="no"?>
<svg
   xmlns:dc="http://purl.org/dc/elements/1.1/"
   xmlns:cc="http://creativecommons.org/ns#"
   xmlns:rdf="http://www.w3.org/1999/02/22-rdf-syntax-ns#"
   xmlns:svg="http://www.w3.org/2000/svg"
   xmlns="http://www.w3.org/2000/svg"
   xmlns:sodipodi="http://sodipodi.sourceforge.net/DTD/sodipodi-0.dtd"
   xmlns:inkscape="http://www.inkscape.org/namespaces/inkscape"
   version="1.0"
   width="862"
   height="1000"
   viewBox="0 0 8620 10000"
   preserveAspectRatio="xMidYMid meet"
   id="svg16"
   sodipodi:docname="logo-transparent.svg"
   inkscape:version="0.92.4 (5da689c313, 2019-01-14)">
  <metadata
     id="metadata22">
    <rdf:RDF>
      <cc:Work
         rdf:about="">
        <dc:format>image/svg+xml</dc:format>
        <dc:type
           rdf:resource="http://purl.org/dc/dcmitype/StillImage" />
        <dc:title />
      </cc:Work>
    </rdf:RDF>
  </metadata>
  <defs
     id="defs20" />
  <sodipodi:namedview
     pagecolor="#ffffff"
     bordercolor="#666666"
     borderopacity="1"
     objecttolerance="10"
     gridtolerance="10"
     guidetolerance="10"
     inkscape:pageopacity="0"
     inkscape:pageshadow="2"
     inkscape:window-width="1920"
     inkscape:window-height="1001"
     id="namedview18"
     showgrid="false"
     inkscape:zoom="0.42193982"
     inkscape:cx="421.35775"
     inkscape:cy="448.70434"
     inkscape:window-x="-9"
     inkscape:window-y="-9"
     inkscape:window-maximized="1"
     inkscape:current-layer="svg16"
     inkscape:pagecheckerboard="true" />
  <g
     id="layer101"
     transform="rotate(45,2625.5127,4994.476)"
     style="fill:#45bff6;stroke:none">
    <path
       d="M 3093,3618 C 2780,3336 1483,2220 1155,1951 1051,1865 931,1761 890,1720 667,1498 631,1165 802,902 985,622 1347,522 1647,670 c 99,49 166,108 292,260 194,234 1437,1688 1668,1953 57,64 103,119 103,122 0,9 -363,658 -406,726 -13,22 -28,39 -33,39 -4,0 -84,-69 -178,-152 z"
       id="path2"
       inkscape:connector-curvature="0" />
  </g>
  <g
     id="layer102"
     transform="rotate(45,2625.5127,4994.476)"
     style="fill:#a4d0e6;stroke:none;fill-opacity:1">
    <path
       d="M 6850,6833 C 6615,6651 5255,5478 5258,5460 c 5,-20 206,-410 385,-745 l 145,-270 45,-7 c 220,-31 522,-38 619,-13 233,60 319,216 358,650 20,222 6,825 -23,985 -11,60 -14,65 -39,68 -33,4 -31,8 -54,-183 -53,-460 -144,-683 -331,-811 -113,-77 -157,-89 -328,-88 -166,0 -261,18 -403,74 l -76,31 -24,-28 -24,-28 23,34 c 12,19 138,167 278,330 765,885 1131,1324 1131,1356 0,50 -39,57 -90,18 z"
       id="path5"
       inkscape:connector-curvature="0"
       style="fill:#a4d0e6;fill-opacity:1" />
    <path
       d="m 5165,6730 c -213,-18 -386,-59 -480,-115 -24,-13 -63,-47 -88,-75 -85,-95 -113,-217 -104,-460 3,-85 13,-213 22,-285 l 17,-130 176,-330 c 357,-670 570,-1108 643,-1323 80,-234 101,-518 48,-643 -26,-59 -103,-133 -156,-149 -25,-8 -89,-11 -179,-8 -121,4 -150,8 -223,33 -111,38 -366,165 -511,254 l -115,70 -38,-37 c -21,-20 -47,-51 -58,-69 -24,-39 -42,-3 175,-350 l 169,-270 121,-78 c 140,-89 462,-250 588,-294 185,-64 380,-82 504,-46 220,63 361,241 404,510 31,191 5,510 -65,793 -92,376 -203,642 -510,1222 -214,405 -288,558 -325,670 -83,247 -78,469 14,624 84,142 245,249 460,305 70,18 335,60 489,76 44,5 60,11 68,27 22,41 -9,50 -226,68 -166,14 -699,21 -820,10 z"
       id="path7"
       inkscape:connector-curvature="0"
       style="fill:#a4d0e6;fill-opacity:1" />
    <path
       d="m 3030,5975 c -267,-44 -433,-165 -502,-363 -32,-94 -32,-289 0,-409 72,-270 237,-590 482,-938 72,-102 77,-110 58,-99 -8,5 -91,70 -184,145 -422,338 -813,573 -1129,678 -267,89 -452,92 -605,10 -113,-60 -189,-176 -226,-344 -32,-148 -22,-670 22,-1048 16,-141 16,-142 -42,-212 -76,-93 -121,-246 -111,-375 8,-99 32,-163 114,-297 36,-59 94,-156 129,-214 70,-117 111,-159 194,-198 93,-44 241,-31 292,26 17,19 52,167 112,478 25,131 44,199 68,250 29,62 33,80 32,150 -1,125 -24,178 -135,307 l -47,53 13,85 c 61,409 167,607 338,633 122,19 485,-178 992,-538 72,-51 144,-100 162,-109 l 32,-16 68,59 c 37,32 79,70 92,84 l 23,25 -57,104 c -105,189 -118,213 -107,203 5,-5 79,-134 163,-285 339,-612 459,-815 615,-1040 342,-492 514,-808 514,-939 -1,-170 -199,-290 -583,-351 l -137,-22 -66,61 c -37,33 -92,73 -123,88 -50,25 -67,28 -161,28 -98,0 -110,-2 -173,-32 -41,-20 -105,-39 -160,-48 -216,-38 -523,-107 -547,-124 -62,-44 -77,-198 -29,-301 44,-94 97,-134 459,-347 102,-59 183,-83 284,-83 134,0 243,38 354,123 l 54,41 136,-13 c 76,-6 189,-17 252,-23 63,-6 252,-12 420,-12 258,-1 318,2 390,17 205,44 331,151 376,321 18,68 18,235 -1,333 -28,147 -108,359 -197,523 -77,142 -503,833 -981,1595 -149,237 -313,498 -365,580 -110,177 -236,425 -276,545 -22,67 -29,110 -33,206 -8,170 4,213 76,284 67,66 102,80 232,87 263,15 503,-52 960,-269 l 115,-55 61,51 c 34,28 64,56 66,62 3,7 -59,135 -138,285 l -143,274 -118,48 c -283,114 -632,215 -874,252 -150,23 -395,28 -500,10 z"
       id="path9"
       inkscape:connector-curvature="0"
       style="fill:#a4d0e6;fill-opacity:1" />
    <path
       d="m 4764,5054 c -27,-21 -71,-59 -99,-85 -27,-26 -257,-226 -510,-443 -264,-227 -461,-405 -463,-416 -4,-23 21,-66 231,-402 135,-217 163,-256 175,-246 43,37 958,1117 969,1145 5,12 -216,445 -241,471 -11,11 -22,6 -62,-24 z"
       id="path11"
       inkscape:connector-curvature="0"
       style="fill:#a4d0e6;fill-opacity:1" />
    <path
       d="M 3093,3618 C 2780,3336 1483,2220 1155,1951 1051,1865 931,1761 890,1720 667,1498 631,1165 802,902 985,622 1347,522 1647,670 c 99,49 166,108 292,260 194,234 1437,1688 1668,1953 57,64 103,119 103,122 0,9 -363,658 -406,726 -13,22 -28,39 -33,39 -4,0 -84,-69 -178,-152 z m 52,-638 c 3,-5 1,-10 -4,-10 -6,0 -11,5 -11,10 0,6 2,10 4,10 3,0 8,-4 11,-10 z"
       id="path13"
       inkscape:connector-curvature="0"
       style="fill:#a4d0e6;fill-opacity:1" />
  </g>
</svg>
